{"title":"Love and Shukla 2018 Hindi 1080p NF WEB-DL x264 ESub [MW]","magnet":"magnet:?xt=urn:btih:d135a9e4c2452b06f5614682e4b5e4a07aea9a83&dn=Love+and+Shukla+2018+Hindi+1080p+NF+WEB-DL+x264+ESub+%5BMW%5D&tr=udp%3A%2F%2Ftracker.leechers-paradise.org%3A6969&tr=udp%3A%2F%2Fzer0day.ch%3A1337&tr=udp%3A%2F%2Fopen.demonii.com%3A1337&tr=udp%3A%2F%2Ftracker.coppersurfer.tk%3A6969&tr=udp%3A%2F%2Fexodus.desync.com%3A6969","uploader":"MFreaky","categoryP":"video","categoryS":"hd___movies","size":"1718637064","seeders":"8","leechers":"27","description":" <a href=\"https://pichub.site/image/DVNNQ\" rel=\"nofollow\" target=\"_NEW\">https://pichub.site/image/DVNNQ</a> <a href=\"\nhttps://pichub.site/image/DVxRd\" rel=\"nofollow\" target=\"_NEW\">\nhttps://pichub.site/image/DVxRd</a> <a href=\"\nhttps://pichub.site/image/DVU1v\" rel=\"nofollow\" target=\"_NEW\">\nhttps://pichub.site/image/DVU1v</a> <a href=\"\nhttps://pichub.site/image/DVLPu\" rel=\"nofollow\" target=\"_NEW\">\nhttps://pichub.site/image/DVLPu</a> <a href=\"\nhttps://pichub.site/image/DV0B9\" rel=\"nofollow\" target=\"_NEW\">\nhttps://pichub.site/image/DV0B9</a> <a href=\"\nhttps://pichub.site/image/DVoJR\" rel=\"nofollow\" target=\"_NEW\">\nhttps://pichub.site/image/DVoJR</a>\r\n\r\nIMDB <a href=\"\nhttps://www.imdb.com/title/tt7647198/\" rel=\"nofollow\" target=\"_NEW\">\nhttps://www.imdb.com/title/tt7647198/</a>\r\n\r\nVideo\r\nID                                       : 1\r\nFormat                                   : AVC\r\nFormat/Info                              : Advanced Video Codec\r\nFormat profile                           : High@L4.1\r\nFormat settings                          : CABAC / 4 Ref Frames\r\nFormat settings, CABAC                   : Yes\r\nFormat settings, RefFrames               : 4 frames\r\nCodec ID                                 : V_MPEG4/ISO/AVC\r\nDuration                                 : 1 h 50 min\r\nBit rate                                 : 2 000 kb/s\r\nWidth                                    : 1 920 pixels\r\nHeight                                   : 1 020 pixels\r\nDisplay aspect ratio                     : 1.882\r\nFrame rate mode                          : Constant\r\nFrame rate                               : 24.000 FPS\r\nColor space                              : YUV\r\nChroma subsampling                       : 4:2:0\r\nBit depth                                : 8 bits\r\nScan type                                : Progressive\r\nBits/(Pixel*Frame)                       : 0.043\r\nStream size                              : 1.50 GiB (94%)\r\nWriting library                          : x264 core 155 r2901 7d0ff22\r\nDefault                                  : Yes\r\nForced                                   : No\r\n\r\nAudio\r\nID                                       : 3\r\nFormat                                   : AAC\r\nFormat/Info                              : Advanced Audio Codec\r\nFormat profile                           : LC\r\nCodec ID                                 : A_AAC-2\r\nDuration                                 : 1 h 50 min\r\nBit rate                                 : 128 kb/s\r\nChannel(s)                               : 2 channels\r\nChannel positions                        : Front: L R\r\nSampling rate                            : 48.0 kHz\r\nFrame rate                               : 46.875 FPS (1024 SPF)\r\nCompression mode                         : Lossy\r\nStream size                              : 101 MiB (6%)\r\nLanguage                                 : Hindi\r\nDefault                                  : Yes\r\nForced                                   : No","last_updated":"2018-09-02T12:05:21.590Z","parsed":{"xt":"urn:btih:d135a9e4c2452b06f5614682e4b5e4a07aea9a83","dn":"Love and Shukla 2018 Hindi 1080p NF WEB-DL x264 ESub [MW]","tr":["udp://exodus.desync.com:6969","udp://open.demonii.com:1337","udp://tracker.coppersurfer.tk:6969","udp://tracker.leechers-paradise.org:6969","udp://zer0day.ch:1337"],"infoHash":"d135a9e4c2452b06f5614682e4b5e4a07aea9a83","infoHashBuffer":{"type":"Buffer","data":[209,53,169,228,194,69,43,6,245,97,70,130,228,181,228,160,122,234,154,131]},"name":"Love and Shukla 2018 Hindi 1080p NF WEB-DL x264 ESub [MW]","announce":["udp://exodus.desync.com:6969","udp://open.demonii.com:1337","udp://tracker.coppersurfer.tk:6969","udp://tracker.leechers-paradise.org:6969","udp://zer0day.ch:1337"],"urlList":[]}}